<?xml version="1.0" encoding="utf-8"?>
<!-- Generator: Adobe Illustrator 22.0.0, SVG Export Plug-In . SVG Version: 6.00 Build 0)  -->
<svg version="1.1" id="Layer_1" xmlns="http://www.w3.org/2000/svg" xmlns:xlink="http://www.w3.org/1999/xlink" x="0px" y="0px"
	 viewBox="0 0 119 119" style="enable-background:new 0 0 119 119;" xml:space="preserve">
<style type="text/css">
	.st0{fill:#203B5B;}
	.st1{fill:#FFFFFF;}
</style>
<circle class="st0" cx="59.5" cy="59.5" r="59.1"/>
<g>
	<g>
		<path class="st1" d="M72.8,65.4c-0.9-1-2.1-1.5-3.3-1.5c-1.2,0-2.3,0.5-3.3,1.5l-3.3,3.2c-0.3-0.2-0.6-0.3-0.9-0.5
			c-0.4-0.2-0.7-0.4-1-0.5c-3-1.9-5.7-4.4-8.3-7.5c-1.3-1.6-2.2-3-2.8-4.4c0.8-0.8,1.6-1.6,2.4-2.4c0.3-0.3,0.6-0.6,0.8-0.9
			c2.1-2.1,2.1-4.6,0-6.7L50.4,43c-0.2-0.2-0.5-0.5-0.8-0.8c-0.6-0.6-1.2-1.3-1.9-1.8c-0.9-0.9-2.1-1.4-3.3-1.4
			c-1.2,0-2.3,0.5-3.3,1.4l-3.3,3.3c-1.3,1.3-2,2.8-2.1,4.5c-0.2,2.3,0.2,4.6,1.2,7.4c1.6,4.3,4,8.4,7.6,12.7
			c4.4,5.2,9.6,9.3,15.6,12.2c2.3,1.1,5.3,2.4,8.7,2.6c0.2,0,0.4,0,0.6,0c2.3,0,4.2-0.8,5.6-2.4l0,0c0.5-0.6,1.1-1.2,1.8-1.8
			c0.4-0.4,0.9-0.8,1.3-1.3c2-2.1,2-4.7,0-6.7L72.8,65.4z M76.6,75.9c-0.4,0.4-0.8,0.8-1.2,1.2c-0.6,0.6-1.3,1.3-1.9,2
			c-1,1.1-2.3,1.6-3.9,1.6c-0.2,0-0.3,0-0.5,0c-3-0.2-5.8-1.4-7.9-2.4c-5.7-2.6-10.7-6.5-14.8-11.5c-3.4-4.1-5.7-7.9-7.2-12
			c-0.9-2.5-1.3-4.5-1.1-6.3c0.1-1.2,0.6-2.2,1.4-3.1l3.4-3.4c0.5-0.5,1.1-0.8,1.6-0.8s1.1,0.3,1.6,0.8c0.6,0.6,1.2,1.2,1.8,1.8
			c0.3,0.3,0.6,0.6,1,1l2.7,2.7c1.1,1.1,1.1,2.2,0,3.3c-0.3,0.3-0.6,0.6-0.9,0.9c-0.8,0.9-1.6,1.7-2.5,2.4l0,0
			c-0.8,0.8-0.7,1.5-0.5,2.1c0,0,0,0,0,0.1c0.7,1.7,1.7,3.3,3.2,5.2c2.7,3.4,5.6,6,8.8,8c0.4,0.3,0.8,0.5,1.2,0.7
			c0.4,0.2,0.7,0.4,1,0.5c0,0,0.1,0,0.1,0.1c0.3,0.2,0.6,0.2,0.9,0.2c0.8,0,1.2-0.5,1.4-0.6l3.4-3.4c0.5-0.5,1.1-0.8,1.6-0.8
			c0.7,0,1.2,0.4,1.6,0.8l5.5,5.5C78,73.9,77.4,75.1,76.6,75.9z M68.1,50.7c1.9,1.9,3.2,4.3,3.6,7c0.1,0.6,0.6,1,1.2,1
			c0.1,0,0.1,0,0.2,0c0.6-0.1,1.1-0.7,1-1.4c-0.5-3.1-2-6-4.3-8.3c-2.3-2.3-5.1-3.7-8.3-4.3c-0.6-0.1-1.3,0.3-1.4,1
			c-0.1,0.6,0.3,1.3,1,1.4C63.7,47.5,66.1,48.8,68.1,50.7z M75.5,43.2c-3.7-3.7-8.5-6.2-13.6-7c-0.6-0.1-1.3,0.3-1.4,1
			c-0.1,0.6,0.3,1.3,1,1.4c4.7,0.8,9,3,12.4,6.4s5.6,7.7,6.4,12.4c0.1,0.6,0.6,1,1.2,1c0.1,0,0.1,0,0.2,0c0.6-0.1,1.1-0.7,1-1.4
			C81.7,51.7,79.3,47,75.5,43.2z"/>
	</g>
</g>
</svg>
