<?xml version="1.0" encoding="utf-8"?>
<!-- Generator: Adobe Illustrator 22.0.0, SVG Export Plug-In . SVG Version: 6.00 Build 0)  -->
<svg version="1.1" id="Layer_1" xmlns="http://www.w3.org/2000/svg" xmlns:xlink="http://www.w3.org/1999/xlink" x="0px" y="0px"
	 viewBox="0 0 119 119" style="enable-background:new 0 0 119 119;" xml:space="preserve">
<style type="text/css">
	.st0{fill:#203B5B;}
	.st1{fill:#FFFFFF;}
</style>
<circle class="st0" cx="59.5" cy="59.5" r="59.1"/>
<g>
	<path class="st1" d="M78.8,43.8c-3.3,0-6,2.7-6,6v2h-7.2c2.4-4.1,3.6-7.2,3.6-9.2c0-5.5-4.5-10-10-10s-10,4.5-10,10
		c0,2,1.2,5.1,3.6,9.2c-0.8,0-6.5,0-7.2,0v-2c0-3.3-2.7-6-6-6c-3.3,0-6,2.7-6,6v5.6c0,0.6,0.4,1,1,1c0.6,0,1-0.4,1-1v-5.6
		c0-2.2,1.8-4,4-4c2.2,0,4,1.8,4,4v23.4c-1.1-0.9-2.5-1.5-4-1.5s-2.9,0.6-4,1.5v-9.9c0-0.6-0.4-1-1-1c-0.6,0-1,0.4-1,1v14.3
		c0,3.4,3,6,6.3,6h38.8c3.3,0,6-2.7,6-6V49.8C84.8,46.5,82.1,43.8,78.8,43.8z M74.8,49.8c0-2.2,1.8-4,4-4c2.2,0,4,1.8,4,4v23.4
		c-0.7-0.6-1.5-1.1-2.4-1.3c-2-0.5-4.1,0-5.6,1.3C74.8,72.4,74.8,51,74.8,49.8z M72.8,63.8H60c-3.3-3.2-9.7-9.3-10.5-10H54
		c2.2,3.5,4.3,6.3,4.3,6.4c0.2,0.3,0.5,0.4,0.8,0.4c0.3,0,0.6-0.1,0.8-0.4c0,0,2.2-2.9,4.3-6.4h8.4L72.8,63.8L72.8,63.8z M59.2,34.8
		c4.4,0,8,3.6,8,8c0,3.7-5.8,12.3-8,15.2c-2.2-3-8-11.6-8-15.2C51.2,38.3,54.8,34.8,59.2,34.8z M35.8,77.8c0-2.2,1.8-4,4-4
		s4,1.8,4,4c0,0.6,0.4,1,1,1s1-0.4,1-1V61.2l10.1,9.6l-11.5,11H40C37.8,81.8,35.8,80.1,35.8,77.8z M57.9,71.6
		c0.2-0.2,0.3-0.4,0.3-0.7c0-0.3-0.1-0.5-0.3-0.7L45.7,58.4v-4.6h1c0.1,0.1,11.8,11.2,12.3,11.7c0.2,0.2,0.4,0.3,0.7,0.3h13.1v4
		h-7.6c-0.3,0-0.5,0.1-0.7,0.3L52.8,81.8h-5.7L57.9,71.6z M78.8,81.8H55.7l10-10h7.2v6c0,0.6,0.4,1,1,1s1-0.4,1-1
		c0-2.6,2.4-4.5,5.1-3.8c1.6,0.4,2.9,1.9,2.9,3.8C82.8,79.9,80.9,81.8,78.8,81.8z"/>
	<path class="st1" d="M59.2,47.7c2.7,0,5-2.2,5-5c0-2.8-2.2-5-5-5c-2.8,0-5,2.2-5,5C54.2,45.5,56.4,47.7,59.2,47.7z M59.2,39.8
		c1.6,0,3,1.3,3,3s-1.3,3-3,3s-3-1.3-3-3S57.5,39.8,59.2,39.8z"/>
	<path class="st1" d="M34.8,60.4c0.5,0,1-0.4,1-1c0-0.6-0.4-1-1-1s-1,0.4-1,1C33.8,60,34.2,60.4,34.8,60.4z"/>
</g>
</svg>
