<?xml version="1.0" encoding="utf-8"?>
<!-- Generator: Adobe Illustrator 22.0.0, SVG Export Plug-In . SVG Version: 6.00 Build 0)  -->
<svg version="1.1" id="Layer_1" xmlns="http://www.w3.org/2000/svg" xmlns:xlink="http://www.w3.org/1999/xlink" x="0px" y="0px"
	 viewBox="0 0 119 119" style="enable-background:new 0 0 119 119;" xml:space="preserve">
<style type="text/css">
	.st0{fill:#203B5B;}
	.st1{fill:#FFFFFF;}
</style>
<circle class="st0" cx="59.5" cy="59.5" r="59.1"/>
<g>
	<g>
		<path class="st1" d="M42.2,59.8h-3.7c-0.5,0-0.9,0.4-0.9,0.9v1.9c0,0.5,0.4,0.9,0.9,0.9s0.9-0.4,0.9-0.9v-0.9h1.8v4.6
			c0,0.5,0.4,0.9,0.9,0.9s0.9-0.4,0.9-0.9v-5.5C43.2,60.2,42.8,59.8,42.2,59.8z M57.4,36.7L57,37.8c-0.1,0.3,0,0.7,0.2,1
			c0.2,0.2,0.4,0.2,0.6,0.2c0.1,0,0.3,0,0.4-0.1l1.4-0.6L61,39c0.3,0.2,0.7,0.1,1-0.2c0.3-0.2,0.4-0.6,0.3-1l-0.4-1.2l1-0.8
			c0.3-0.2,0.4-0.7,0.3-1c-0.1-0.4-0.5-0.6-0.9-0.6H61L60.3,33c-0.3-0.6-1.3-0.6-1.6,0L58,34.2h-1.3c-0.4,0-0.7,0.3-0.9,0.6
			c-0.1,0.4,0,0.8,0.3,1L57.4,36.7z M59.5,35.5l0.1-0.2l0.1,0.2c0.1,0.2,0.2,0.3,0.3,0.4c-0.1,0.2-0.1,0.4-0.1,0.5
			c-0.1,0-0.2,0-0.3,0c-0.1,0-0.2,0-0.3,0c0-0.2,0-0.4-0.1-0.6C59.4,35.8,59.4,35.7,59.5,35.5z M36.8,65.3c-4.5,0-4.6,11.8-4.6,11.9
			c0,2.2,1.6,4.1,3.7,4.5v4.7c0,0.5,0.4,0.9,0.9,0.9s0.9-0.4,0.9-0.9v-4.7c2.1-0.4,3.7-2.3,3.7-4.5C41.3,77.2,41.2,65.3,36.8,65.3z
			 M36.8,80.1c-1.5,0-2.8-1.2-2.8-2.8c0-4.6,1.2-10.1,2.8-10.1c1.5,0,2.8,5.5,2.8,10.1C39.5,78.8,38.2,80.1,36.8,80.1z M49.2,36.7
			l-0.4,1.2c-0.1,0.3,0,0.7,0.2,1c0.2,0.2,0.4,0.2,0.6,0.2c0.1,0,0.3,0,0.4-0.1l1.5-0.7l1.4,0.7c0.3,0.2,0.7,0.1,1-0.2
			c0.3-0.2,0.4-0.6,0.3-1l-0.4-1.1l1-0.8c0.3-0.2,0.4-0.7,0.3-1c-0.1-0.4-0.5-0.6-0.9-0.6h-1.3L52.2,33c-0.3-0.6-1.3-0.6-1.6,0
			l-0.7,1.3h-1.2c-0.4,0-0.7,0.3-0.9,0.6c-0.1,0.4,0,0.8,0.3,1L49.2,36.7z M51.3,35.5l0.1-0.2l0.1,0.2c0,0.1,0.1,0.3,0.3,0.3
			c-0.1,0.2-0.1,0.4-0.1,0.5c-0.1,0-0.2,0-0.3,0c-0.1,0-0.2,0-0.3,0c0-0.2,0-0.4-0.1-0.6C51.2,35.8,51.2,35.7,51.3,35.5z M66.6,36.7
			l-0.4,1.2c-0.1,0.3,0,0.7,0.2,1c0.2,0.2,0.4,0.2,0.6,0.2c0.1,0,0.3,0,0.4-0.1l1.5-0.7l1.4,0.7c0.3,0.2,0.7,0.1,1-0.2
			c0.3-0.2,0.4-0.6,0.3-1l-0.4-1.1l1-0.8c0.3-0.2,0.4-0.7,0.3-1c-0.1-0.4-0.5-0.6-0.9-0.6h-1.3l-0.6-1.4c-0.3-0.6-1.3-0.6-1.6,0
			l-0.7,1.3h-1.3c-0.4,0-0.7,0.3-0.9,0.6c-0.1,0.4,0,0.8,0.3,1L66.6,36.7z M68.8,35.5l0.1-0.2l0.1,0.2c0.1,0.2,0.2,0.3,0.3,0.4
			c-0.1,0.2-0.1,0.4-0.1,0.5c-0.1,0-0.2,0-0.3,0s-0.2,0-0.3,0c0-0.2,0-0.4-0.1-0.6C68.6,35.8,68.7,35.7,68.8,35.5z M40,36.7
			l-0.4,1.2c-0.1,0.3,0,0.7,0.2,1c0.2,0.2,0.4,0.2,0.6,0.2c0.1,0,0.3,0,0.4-0.1l1.5-0.7l1.4,0.7c0.3,0.2,0.7,0.1,1-0.2
			c0.3-0.2,0.4-0.6,0.3-1l-0.4-1.1l1-0.8c0.3-0.2,0.4-0.7,0.3-1c-0.1-0.4-0.5-0.6-0.9-0.6h-1.3L43,33c-0.3-0.6-1.3-0.6-1.6,0
			l-0.7,1.3h-1.2c-0.4-0.1-0.7,0.2-0.8,0.6c-0.2,0.4,0,0.8,0.3,1L40,36.7z M42.2,35.5l0.1-0.2l0.1,0.2c0.1,0.1,0.2,0.3,0.3,0.3
			c-0.1,0.2-0.1,0.4-0.1,0.5c-0.1,0-0.2,0-0.3,0c-0.1,0-0.2,0-0.3,0c0-0.2,0-0.4-0.1-0.6C42,35.8,42,35.7,42.2,35.5z M75.8,36.7
			l-0.4,1.2c-0.1,0.3,0,0.7,0.2,1c0.2,0.2,0.4,0.2,0.6,0.2c0.1,0,0.3,0,0.4-0.1l1.5-0.7l1.4,0.7c0.3,0.2,0.7,0.1,1-0.2
			c0.3-0.2,0.4-0.6,0.3-1l-0.5-1.1l1-0.8c0.3-0.2,0.4-0.7,0.3-1c-0.1-0.4-0.5-0.6-0.9-0.6h-1.3L78.6,33c-0.3-0.6-1.3-0.6-1.6,0
			l-0.7,1.3H75c-0.4,0-0.7,0.3-0.9,0.6c-0.1,0.4,0,0.8,0.3,1L75.8,36.7z M77.8,35.5l0.1-0.2l0.1,0.2c0.1,0.2,0.2,0.3,0.3,0.4
			c-0.1,0.2-0.1,0.4-0.1,0.5c-0.1,0-0.2,0-0.3,0s-0.2,0-0.3,0c0-0.2,0-0.4-0.1-0.6C77.8,35.8,77.8,35.7,77.8,35.5z M84.3,81.8
			c-0.2,0-0.3,0-0.5,0c-0.6-1.1-1.8-1.9-3.2-1.9s-2.6,0.7-3.2,1.9c-0.2,0-0.3,0-0.5,0c-1.5,0-2.7,1.2-2.7,2.8c0,1.5,1.2,2.8,2.7,2.8
			h7.3c1.5,0,2.8-1.2,2.8-2.8C87.2,83.2,85.9,81.8,84.3,81.8z M84.3,85.6h-7.3c-0.5,0-0.9-0.4-0.9-0.9s0.4-0.9,0.9-0.9
			c0.2,0,0.3,0,0.5,0.1c0.3,0.2,0.6,0.2,0.8,0.1c0.3-0.1,0.5-0.4,0.5-0.6c0.2-0.8,0.9-1.4,1.8-1.4s1.6,0.6,1.8,1.4
			c0.1,0.3,0.3,0.5,0.5,0.6c0.3,0.1,0.6,0.1,0.8-0.1c0.6-0.4,1.4,0.1,1.4,0.8C85.3,85.2,84.9,85.6,84.3,85.6z M42.2,48.8h-3.7
			c-0.5,0-0.9,0.4-0.9,0.9v5.5c0,0.5,0.4,0.9,0.9,0.9h3.7c0.5,0,0.9-0.4,0.9-0.9v-5.5C43.2,49.2,42.8,48.8,42.2,48.8z M41.3,54.3
			h-1.9v-3.7h1.8L41.3,54.3L41.3,54.3z M71.6,45.2c-0.5,0-0.9,0.4-0.9,0.9v34.9c0,0.5,0.4,0.9,0.9,0.9s0.9-0.4,0.9-0.9V46.2
			C72.4,45.7,72.1,45.2,71.6,45.2z M81.7,60.8c0-0.5-0.4-0.9-0.9-0.9H77c-0.5,0-0.9,0.4-0.9,0.9v5.5c0,0.5,0.4,0.9,0.9,0.9h3.7
			c0.5,0,0.9-0.4,0.9-0.9V60.8z M79.8,65.3h-1.8v-3.7h1.8V65.3z M33,63.6c0.5,0,0.9-0.4,0.9-0.9V43.3h51.3v36.7
			c0,0.5,0.4,0.9,0.9,0.9s0.9-0.4,0.9-0.9V40.7c0-0.5-0.4-0.9-0.9-0.9s-0.9,0.4-0.9,0.9v0.9H34v-0.9c0-0.5-0.4-1-0.9-1
			s-0.9,0.5-0.9,1v22C32.2,63.2,32.5,63.6,33,63.6z M80.8,70.8H77c-0.5,0-0.9,0.4-0.9,0.9v5.5c0,0.5,0.4,0.9,0.9,0.9h3.7
			c0.5,0,0.9-0.4,0.9-0.9v-5.5C81.7,71.2,81.2,70.8,80.8,70.8z M79.8,76.3h-1.8v-3.7h1.8V76.3z M81.7,49.8c0-0.5-0.4-0.9-0.9-0.9H77
			c-0.5,0-0.9,0.4-0.9,0.9v5.5c0,0.5,0.4,0.9,0.9,0.9h3.7c0.5,0,0.9-0.4,0.9-0.9V49.8z M79.8,54.3h-1.8v-3.7h1.8V54.3z M62.3,56.2
			h3.7c0.5,0,0.9-0.4,0.9-0.9v-5.5c0-0.5-0.4-0.9-0.9-0.9h-3.7c-0.5,0-0.9,0.4-0.9,0.9v5.5C61.4,55.8,61.8,56.2,62.3,56.2z
			 M63.3,50.8h1.8v3.7h-1.8V50.8z M46.8,46.2v34.9c0,0.5,0.4,0.9,0.9,0.9s0.9-0.4,0.9-0.9V46.2c0-0.5-0.4-0.9-0.9-0.9
			S46.8,45.7,46.8,46.2z M71.6,83.8H45.8c-0.5,0-0.9,0.4-0.9,0.9v1.8c0,0.5,0.4,0.9,0.9,0.9s0.9-0.4,0.9-0.9v-0.9h24.8
			c0.5,0,0.9-0.4,0.9-0.9C72.4,84.2,72.1,83.8,71.6,83.8z M52.3,66.2L52.3,66.2c0,0.5,0.4,0.9,0.9,0.9H57c0.5,0,0.9-0.4,0.9-0.9
			v-5.5c0-0.5-0.4-0.9-0.9-0.9h-3.7c-0.5,0-0.9,0.4-0.9,0.9V66.2z M54.2,61.8h1.8v3.7h-1.8V61.8z M56.8,56.2c0.5,0,0.9-0.4,0.9-0.9
			v-5.5c0-0.5-0.4-0.9-0.9-0.9h-3.7c-0.5,0-0.9,0.4-0.9,0.9v5.5c0,0.5,0.4,0.9,0.9,0.9H56.8z M54.2,50.8h1.8v3.7h-1.8V50.8z
			 M66.1,81.8c0.5,0,0.9-0.4,0.9-0.9v-8.3h0.9c0.5,0,0.9-0.4,0.9-0.9s-0.4-0.9-0.9-0.9H51.3c-0.5,0-0.9,0.4-0.9,0.9s0.4,0.9,0.9,0.9
			h0.9v8.3c0,0.5,0.4,0.9,0.9,0.9s0.9-0.4,0.9-0.9v-8.3h4.6v3.7c-0.5,0-0.9,0.4-0.9,0.9s0.4,0.9,0.9,0.9V81c0,0.5,0.4,0.9,0.9,0.9
			s0.9-0.4,0.9-0.9v-2.8c0.5,0,0.9-0.4,0.9-0.9s-0.4-0.9-0.9-0.9v-3.7H65v8.3C65.2,81.4,65.6,81.8,66.1,81.8z M61.4,66.2
			c0,0.5,0.4,0.9,0.9,0.9H66c0.5,0,0.9-0.4,0.9-0.9v-5.5c0-0.5-0.4-0.9-0.9-0.9h-3.7c-0.5,0-0.9,0.4-0.9,0.9
			C61.4,60.8,61.4,66.2,61.4,66.2z M63.3,61.8h1.8v3.7h-1.8V61.8z"/>
	</g>
</g>
</svg>
