<?xml version="1.0" encoding="iso-8859-1"?>
<!-- Generator: Adobe Illustrator 19.0.0, SVG Export Plug-In . SVG Version: 6.00 Build 0)  -->
<svg version="1.1" id="Capa_1" xmlns="http://www.w3.org/2000/svg" xmlns:xlink="http://www.w3.org/1999/xlink" x="0px" y="0px"
	 viewBox="0 0 512 512" style="enable-background:new 0 0 512 512;" xml:space="preserve">
<path style="fill:#9ED0FF;" d="M256,0C115.3,0,0,115.3,0,256s115.3,256,256,256s256-115.3,256-256S396.7,0,256,0z"/>
<path style="fill:#73BCFF;" d="M512,256c0,140.7-115.3,256-256,256V0C396.7,0,512,115.3,512,256z"/>
<path style="fill:#3AAAFF;" d="M256,30C131.8,30,30,131.8,30,256s101.8,226,226,226s226-101.8,226-226S380.2,30,256,30z"/>
<path style="fill:#0095FF;" d="M482,256c0,124.2-101.8,226-226,226V30C380.2,30,482,131.8,482,256z"/>
<g>
	<path style="fill:#9ED0FF;" d="M256,0c-75.601,0-136,112.899-136,256c0,143.099,60.399,256,136,256s136-112.901,136-256
		C392,112.899,331.601,0,256,0z M256,482c-57.001,0-106-103.9-106-226S198.999,30,256,30s106,103.9,106,226S313.001,482,256,482z"/>
	<rect x="47.1" y="120" style="fill:#9ED0FF;" width="417.8" height="30"/>
	<rect x="15" y="241" style="fill:#9ED0FF;" width="482" height="30"/>
	<rect x="47.1" y="362" style="fill:#9ED0FF;" width="417.8" height="30"/>
</g>
<g>
	<path style="fill:#73BCFF;" d="M392,256c0,143.099-60.399,256-136,256v-30c57.001,0,106-103.9,106-226S313.001,30,256,30V0
		C331.601,0,392,112.899,392,256z"/>
	<rect x="256" y="120" style="fill:#73BCFF;" width="208.9" height="30"/>
	<rect x="256" y="362" style="fill:#73BCFF;" width="208.9" height="30"/>
	<rect x="256" y="241" style="fill:#73BCFF;" width="241" height="30"/>
</g>
<rect x="241" y="15" style="fill:#9ED0FF;" width="30" height="482"/>
<rect x="256" y="15" style="fill:#73BCFF;" width="15" height="482"/>
<g>
</g>
<g>
</g>
<g>
</g>
<g>
</g>
<g>
</g>
<g>
</g>
<g>
</g>
<g>
</g>
<g>
</g>
<g>
</g>
<g>
</g>
<g>
</g>
<g>
</g>
<g>
</g>
<g>
</g>
</svg>
