<?xml version="1.0" encoding="utf-8"?>
<!-- Generator: Adobe Illustrator 22.0.0, SVG Export Plug-In . SVG Version: 6.00 Build 0)  -->
<svg version="1.1" id="Layer_1" xmlns="http://www.w3.org/2000/svg" xmlns:xlink="http://www.w3.org/1999/xlink" x="0px" y="0px"
	 viewBox="0 0 119 119" style="enable-background:new 0 0 119 119;" xml:space="preserve">
<style type="text/css">
	.st0{fill:#203B5B;}
	.st1{fill:#FFFFFF;}
</style>
<circle class="st0" cx="59.5" cy="59.5" r="59.1"/>
<path class="st1" d="M84.3,46.8c-4.7-9.1-14.2-15.3-25.1-15.3s-20.4,6.2-25,15.3c0,0,0,0.1-0.1,0.1c-1.9,3.8-3,8.1-3,12.7
	s1.1,8.9,3,12.7c0,0,0,0.1,0.1,0.1c4.6,9.1,14.1,15.3,25,15.3s20.4-6.2,25-15.3c0,0,0-0.1,0.1-0.1c1.9-3.8,3-8.1,3-12.7
	S86.2,50.7,84.3,46.8C84.3,46.8,84.3,46.8,84.3,46.8z M82.4,70.6H71.7c0.6-3,1-6.3,1-9.8h12.2C84.8,64.2,83.8,67.6,82.4,70.6z
	 M59.2,85.2c-3.9,0-7.3-5-9.3-12.2h18.6C66.7,80.2,63.2,85.2,59.2,85.2z M49.3,70.6c-0.6-3-1-6.3-1.1-9.8h22
	c-0.1,3.5-0.5,6.8-1.1,9.8H49.3z M33.7,60.8h12.2c0.1,3.5,0.4,6.8,1,9.8H36.2C34.7,67.6,33.8,64.2,33.7,60.8z M36.2,48.5h10.7
	c-0.6,3-1,6.3-1,9.8H33.7C33.8,54.8,34.7,51.5,36.2,48.5z M59.2,33.8c3.9,0,7.3,5,9.3,12.2H49.9C51.9,38.8,55.4,33.8,59.2,33.8z
	 M69.2,48.5c0.6,3,1,6.3,1.1,9.8h-22c0.1-3.5,0.5-6.8,1.1-9.8C49.3,48.6,69.2,48.6,69.2,48.5z M72.8,58.3c-0.1-3.5-0.4-6.8-1-9.8
	h10.7c1.4,3,2.3,6.3,2.5,9.8H72.8z M81.2,46h-10c-1.2-4.8-3.1-8.8-5.5-11.4C72.2,36.3,77.7,40.5,81.2,46z M52.8,34.7
	c-2.3,2.6-4.2,6.5-5.5,11.4h-10C40.8,40.5,46.3,36.3,52.8,34.7z M37.5,72.9h10c1.2,4.9,3.1,8.8,5.5,11.4
	C46.3,82.7,40.8,78.6,37.5,72.9z M65.7,84.3c2.3-2.6,4.2-6.5,5.5-11.4h10C77.7,78.6,72.2,82.7,65.7,84.3z"/>
</svg>
