<?xml version="1.0" encoding="utf-8"?>
<!-- Generator: Adobe Illustrator 22.0.0, SVG Export Plug-In . SVG Version: 6.00 Build 0)  -->
<svg version="1.1" id="Layer_1" xmlns="http://www.w3.org/2000/svg" xmlns:xlink="http://www.w3.org/1999/xlink" x="0px" y="0px"
	 viewBox="0 0 89.3 85.3" style="enable-background:new 0 0 89.3 85.3;" xml:space="preserve">
<style type="text/css">
	.st0{filter:url(#Adobe_OpacityMaskFilter);}
	.st1{fill:url(#SVGID_2_);}
	.st2{mask:url(#SVGID_1_);fill:#FCE200;}
	.st3{filter:url(#Adobe_OpacityMaskFilter_1_);}
	.st4{fill:url(#SVGID_4_);}
	.st5{mask:url(#SVGID_3_);fill:#FCE200;}
</style>
<defs>
	<filter id="Adobe_OpacityMaskFilter" filterUnits="userSpaceOnUse" x="8.5" y="4.7" width="39.2" height="48.4">
		<feColorMatrix  type="matrix" values="1 0 0 0 0  0 1 0 0 0  0 0 1 0 0  0 0 0 1 0"/>
	</filter>
</defs>
<mask maskUnits="userSpaceOnUse" x="8.5" y="4.7" width="39.2" height="48.4" id="SVGID_1_">
	<g class="st0">
		<g>
			<linearGradient id="SVGID_2_" gradientUnits="userSpaceOnUse" x1="51.7396" y1="21.4864" x2="28.9377" y2="59.6549">
				<stop  offset="0" style="stop-color:#FFFFFF"/>
				<stop  offset="1" style="stop-color:#000000"/>
			</linearGradient>
			<rect x="-10.6" y="-29.1" class="st1" width="117" height="114"/>
			<path d="M105.9-28.6v113h-116v-113H105.9 M106.9-29.6h-118v115h118V-29.6L106.9-29.6z"/>
		</g>
	</g>
</mask>
<path class="st2" d="M47.6,4.7c-8.3,3.2-16,7.4-22.4,13.6C20,23.4,15.6,29,12.9,35.9C10.8,41,9.5,46.4,8.6,51.8
	c0,0.1-0.2,1.1-0.1,1.3c0.2,0.2,0.1,0,0.3-0.2c0.6-0.7,0.7-2.7,0.9-3.6C12.1,35.2,22,23.2,34,16c3.9-2.3,8.1-4.3,12.4-5.9
	c0.5-0.2,0.7-2.1,0.9-2.6C47.4,7.2,47.6,4.7,47.6,4.7L47.6,4.7z"/>
<defs>
	<filter id="Adobe_OpacityMaskFilter_1_" filterUnits="userSpaceOnUse" x="43.1" y="32" width="39.2" height="48.4">
		<feColorMatrix  type="matrix" values="1 0 0 0 0  0 1 0 0 0  0 0 1 0 0  0 0 0 1 0"/>
	</filter>
</defs>
<mask maskUnits="userSpaceOnUse" x="43.1" y="32" width="39.2" height="48.4" id="SVGID_3_">
	<g class="st3">
		<g>
			
				<linearGradient id="SVGID_4_" gradientUnits="userSpaceOnUse" x1="3729.7395" y1="750.4864" x2="3706.9375" y2="788.655" gradientTransform="matrix(-1 0 0 -1 3768.7437 814.0828)">
				<stop  offset="0" style="stop-color:#FFFFFF"/>
				<stop  offset="1" style="stop-color:#000000"/>
			</linearGradient>
			<rect x="-15.6" y="0.1" class="st4" width="117" height="114"/>
			<path d="M100.9,0.6v113h-116V0.6H100.9 M101.9-0.4h-118v115h118V-0.4L101.9-0.4z"/>
		</g>
	</g>
</mask>
<path class="st5" d="M43.1,80.4c8.3-3.2,16-7.4,22.4-13.6c5.3-5.1,9.7-10.7,12.4-17.5c2.1-5.1,3.3-10.5,4.3-15.9
	c0-0.1,0.2-1.1,0.1-1.3c-0.2-0.2-0.1,0-0.3,0.2c-0.6,0.7-0.7,2.7-0.9,3.6c-2.5,14-12.3,26-24.4,33.2c-3.9,2.3-8.1,4.3-12.4,5.9
	c-0.5,0.2-0.7,2.1-0.9,2.6C43.4,77.9,43.1,80.4,43.1,80.4L43.1,80.4z"/>
</svg>
