<?xml version="1.0" encoding="utf-8"?>
<!-- Generator: Adobe Illustrator 22.0.0, SVG Export Plug-In . SVG Version: 6.00 Build 0)  -->
<svg version="1.1" id="Layer_1" xmlns="http://www.w3.org/2000/svg" xmlns:xlink="http://www.w3.org/1999/xlink" x="0px" y="0px"
	 viewBox="0 0 119 119" style="enable-background:new 0 0 119 119;" xml:space="preserve">
<style type="text/css">
	.st0{fill:#203B5B;}
	.st1{fill:#FFFFFF;}
</style>
<circle class="st0" cx="59.5" cy="59.5" r="59.1"/>
<path class="st1" d="M33.2,37.5l3.5,6.2c0.1,0.2,0.3,0.4,0.6,0.4l3.3,0.8l11.3,11.3l1.2-1.2L41.7,43.5c-0.1-0.1-0.3-0.2-0.4-0.2
	L38,42.5l-3-5.3l2.6-2.6l5.3,3l0.8,3.2c0,0.2,0.1,0.3,0.2,0.4l11.5,11.5l1.2-1.2L45.5,40.2L44.7,37c-0.1-0.2-0.2-0.4-0.4-0.6
	L38,32.8c-0.4-0.2-0.8-0.1-1.1,0.2l-3.5,3.5C33.2,36.8,33,37.2,33.2,37.5z"/>
<path class="st1" d="M69.8,50L50.5,69.4l-1.2-1.2l19.3-19.4L69.8,50z"/>
<path class="st1" d="M47.2,70.2c-0.2-0.3-0.4-0.4-0.8-0.4H41c-0.3,0-0.6,0.2-0.8,0.4l-2.6,4.4c-0.2,0.3-0.2,0.6,0,0.9l2.6,4.4
	c0.2,0.3,0.4,0.4,0.8,0.4h5.3c0.3,0,0.6-0.2,0.8-0.4l2.6-4.4c0.2-0.3,0.2-0.6,0-0.9L47.2,70.2z M45.8,78.6h-4.3l-2.1-3.5l2.1-3.5
	h4.3l2.1,3.5L45.8,78.6z"/>
<path class="st1" d="M75.4,53.8c5.8,0,10.5-4.7,10.6-10.5c0-0.9-0.1-1.8-0.3-2.6c-0.1-0.5-0.6-0.8-1.1-0.6c-0.2,0-0.3,0.1-0.4,0.2
	l-5.5,5.5l-4.4-1.4l-1.5-4.3l5.5-5.5c0.3-0.3,0.3-0.9,0-1.2c-0.1-0.1-0.3-0.2-0.4-0.2c-5.6-1.6-11.3,1.8-12.8,7.4
	c-0.2,0.9-0.3,1.7-0.3,2.6c0,0.7,0.1,1.4,0.2,2.1L45.8,64.7c-0.7-0.1-1.4-0.2-2.1-0.2c-5.8,0-10.6,4.7-10.6,10.6
	c0,5.8,4.7,10.6,10.6,10.6c5.8,0,10.6-4.7,10.6-10.6c0-0.7-0.1-1.4-0.2-2.1l4.6-4.6l2,2c0.3,0.3,0.9,0.3,1.2,0l0.4-0.4
	c0.4-0.4,1-0.4,1.4,0s0.4,1,0,1.4l0,0l-0.4,0.4c-0.3,0.3-0.3,0.9,0,1.2l10.5,10.5c2.8,2.8,7.3,2.8,10.1,0c2.8-2.8,2.8-7.3,0-10.1
	l0,0L73.4,62.9c-0.3-0.3-0.9-0.3-1.2,0l-0.4,0.4c-0.4,0.4-1,0.4-1.4,0s-0.4-1,0-1.4l0,0l0.4-0.4c0.3-0.3,0.3-0.9,0-1.2l-2-2l4.6-4.6
	C74.1,53.8,74.8,53.8,75.4,53.8z M78.8,83.8c-0.6,0-1.3-0.1-1.9-0.3l6.9-6.9c1,2.8-0.4,5.8-3.1,6.9C80.2,83.8,79.6,83.8,78.8,83.8z
	 M68.9,60.9c-1,1.2-0.8,2.9,0.3,3.9c1,0.9,2.5,0.9,3.5,0l9.9,9.8c0.1,0.1,0.2,0.2,0.3,0.3l-7.5,7.5c-0.1-0.1-0.2-0.2-0.3-0.3
	l-9.9-9.9c1-1.2,0.8-2.9-0.3-3.9c-1-0.9-2.5-0.9-3.5,0L60,66.9l7.6-7.6L68.9,60.9z M72.4,52l-20,20c-0.2,0.2-0.3,0.5-0.2,0.8
	c1.2,4.7-1.7,9.6-6.4,10.8s-9.6-1.7-10.8-6.4c-1.2-4.7,1.7-9.6,6.4-10.8c1.4-0.4,2.9-0.4,4.4,0c0.3,0.1,0.6,0,0.8-0.2l20-20
	c0.2-0.2,0.3-0.5,0.2-0.8c-1.2-4.7,1.6-9.5,6.3-10.7c0.9-0.2,1.8-0.3,2.7-0.3L71.2,39c-0.2,0.2-0.3,0.6-0.2,0.9l1.8,5.3
	c0.1,0.3,0.3,0.5,0.6,0.6l5.2,1.8c0.3,0.1,0.7,0,0.9-0.2l4.6-4.6c0,0.2,0,0.3,0,0.5c0,4.8-3.9,8.8-8.7,8.8c-0.7,0-1.5-0.1-2.2-0.3
	C73.1,51.8,72.7,51.8,72.4,52L72.4,52L72.4,52z"/>
<path class="st1" d="M78.7,77.1l-1.2,1.2l-8.8-8.8l1.2-1.2L78.7,77.1z"/>
</svg>
