<?xml version="1.0" encoding="utf-8"?>
<!-- Generator: Adobe Illustrator 22.0.0, SVG Export Plug-In . SVG Version: 6.00 Build 0)  -->
<svg version="1.1" id="Layer_1" xmlns="http://www.w3.org/2000/svg" xmlns:xlink="http://www.w3.org/1999/xlink" x="0px" y="0px"
	 viewBox="0 0 119 119" style="enable-background:new 0 0 119 119;" xml:space="preserve">
<style type="text/css">
	.st0{fill:#203B5B;}
	.st1{fill:#FFFFFF;}
</style>
<circle class="st0" cx="59.4" cy="59.6" r="59.1"/>
<g>
	<g>
		<path class="st1" d="M50.4,69.3c-2.8,0-5.1,2.3-5.1,5.1c0,2.8,2.3,5.1,5.1,5.1c2.8,0,5.1-2.3,5.1-5.1
			C55.4,71.6,53.1,69.3,50.4,69.3z M50.4,76.7c-1.3,0-2.4-1.1-2.4-2.4s1.1-2.4,2.4-2.4s2.4,1.1,2.4,2.4
			C52.8,75.7,51.7,76.7,50.4,76.7z M50.4,34.4c-0.7,0-1.3,0.6-1.3,1.3c0,0.7,0.6,1.3,1.3,1.3C71,37,87.7,53.7,87.7,74.3
			c0,0.7,0.6,1.3,1.3,1.3c0.7,0,1.3-0.6,1.3-1.3C90.3,52.3,72.4,34.4,50.4,34.4z M50.4,42.8c-0.7,0-1.3,0.6-1.3,1.3s0.6,1.3,1.3,1.3
			c15.9,0,28.9,13,28.9,28.9c0,0.7,0.6,1.3,1.3,1.3c0.7,0,1.3-0.6,1.3-1.3C81.9,56.9,67.8,42.8,50.4,42.8z M50.4,51.2
			c-0.7,0-1.3,0.6-1.3,1.3c0,0.7,0.6,1.3,1.3,1.3c11.3,0,20.5,9.2,20.5,20.5c0,0.7,0.6,1.3,1.3,1.3c0.7,0,1.3-0.6,1.3-1.3
			C73.5,61.6,63.1,51.2,50.4,51.2z M50.4,60.5c-0.7,0-1.3,0.6-1.3,1.3s0.6,1.3,1.3,1.3c6.2,0,11.2,5,11.2,11.2
			c0,0.7,0.6,1.3,1.3,1.3c0.7,0,1.3-0.6,1.3-1.3C64.2,66.7,58,60.5,50.4,60.5z"/>
	</g>
</g>
</svg>
